HIERARCHY
ROOT Hips
{
  OFFSET 54.5904 96.4007 1.38068
  CHANNELS 6 Xposition Yposition Zposition Zrotation Xrotation Yrotation
  JOINT spine
  {
    OFFSET 0 8.13249 0.467659
    CHANNELS 3 Zrotation Xrotation Yrotation
    JOINT spine1
    {
      OFFSET 0 10.3498 0
      CHANNELS 3 Zrotation Xrotation Yrotation
      JOINT spine2
      {
        OFFSET 0 9.91699 0
        CHANNELS 3 Zrotation Xrotation Yrotation
        JOINT Neck
        {
          OFFSET 0 25.461 1.2139
          CHANNELS 3 Zrotation Xrotation Yrotation
          JOINT Head
          {
            OFFSET 0 7.69245 0
            CHANNELS 3 Zrotation Xrotation Yrotation
            End Site
            {
              OFFSET 0 18.62 -6.14063
            }
          }
        }
        JOINT RightShoulder
        {
          OFFSET -4.17575 10.7096 -0.581445
          CHANNELS 3 Zrotation Xrotation Yrotation
          JOINT RightArm
          {
            OFFSET 0 14.0466 0
            CHANNELS 3 Zrotation Xrotation Yrotation
            JOINT RightArmRoll
            {
              OFFSET 0 7.09099 0
              CHANNELS 3 Zrotation Xrotation Yrotation
              JOINT RightForeArm
              {
                OFFSET 0 20.6535 0
                CHANNELS 3 Zrotation Xrotation Yrotation
                JOINT RightForeArmRoll
                {
                  OFFSET 0 7.95718 0
                  CHANNELS 3 Zrotation Xrotation Yrotation
                  JOINT RightHand
                  {
                    OFFSET 0 15.9683 0
                    CHANNELS 3 Zrotation Xrotation Yrotation
                    End Site
                    {
                      OFFSET 0 0 0
                    }
                  }
                }
              }
            }
          }
        }
        JOINT LeftShoulder
        {
          OFFSET 4.17575 10.7096 -0.581445
          CHANNELS 3 Zrotation Xrotation Yrotation
          JOINT LeftArm
          {
            OFFSET 0 14.0466 0
            CHANNELS 3 Zrotation Xrotation Yrotation
            JOINT LeftArmRoll
            {
              OFFSET 0 7.09098 0
              CHANNELS 3 Zrotation Xrotation Yrotation
              JOINT LeftForeArm
              {
                OFFSET 0 20.6535 0
                CHANNELS 3 Zrotation Xrotation Yrotation
                JOINT LeftForeArmRoll
                {
                  OFFSET 0 7.95718 0
                  CHANNELS 3 Zrotation Xrotation Yrotation
                  JOINT LeftHand
                  {
                    OFFSET 0 15.9683 0
                    CHANNELS 3 Zrotation Xrotation Yrotation
                    End Site
                    {
                      OFFSET 0 0 0
                    }
                  }
                }
              }
            }
          }
        }
      }
    }
  }
  JOINT RightUpLeg
  {
    OFFSET -7.20834 -1.32182 -1.10884
    CHANNELS 3 Zrotation Xrotation Yrotation
    JOINT RightUpLegRoll
    {
      OFFSET 0 18.7238 0
      CHANNELS 3 Zrotation Xrotation Yrotation
      JOINT RightLeg
      {
        OFFSET 0 -23.1866 0
        CHANNELS 3 Zrotation Xrotation Yrotation
        JOINT RightLegRoll
        {
          OFFSET 0 23.2624 0
          CHANNELS 3 Zrotation Xrotation Yrotation
          JOINT RightFoot
          {
            OFFSET 0 19.3621 0
            CHANNELS 3 Zrotation Xrotation Yrotation
            JOINT RightToeBase
            {
              OFFSET 0 16.1857 0
              CHANNELS 3 Zrotation Xrotation Yrotation
              End Site
              {
                OFFSET 0.00686052 7.83863 -0.903522
              }
            }
          }
        }
      }
    }
  }
  JOINT LeftUpLeg
  {
    OFFSET 7.20834 -1.32182 -1.10884
    CHANNELS 3 Zrotation Xrotation Yrotation
    JOINT LeftUpLegRoll
    {
      OFFSET 0 18.7239 0
      CHANNELS 3 Zrotation Xrotation Yrotation
      JOINT LeftLeg
      {
        OFFSET 0 23.1865 0
        CHANNELS 3 Zrotation Xrotation Yrotation
        JOINT LeftLegRoll
        {
          OFFSET 0 23.4775 0
          CHANNELS 3 Zrotation Xrotation Yrotation
          JOINT LeftFoot
          {
            OFFSET 0 19.147 0
            CHANNELS 3 Zrotation Xrotation Yrotation
            JOINT LeftToeBase
            {
              OFFSET 0 16.1857 0
              CHANNELS 3 Zrotation Xrotation Yrotation
              End Site
              {
                OFFSET -0.0307459 7.83862 -0.903522
              }
            }
          }
        }
      }
    }
  }
}
MOTION
Frames: 4
Frame Time: 0.00208333
53.9073 96.0318 8.34515 -0.315004 -2.32828 0.154392 0.597067 -0.554003 0.201596 1.18188 2.88636 0.322143 1.17918 4.53121 0.302508 -2.38479 13.0932 -4.49011 2.17725 -2.79787 -4.87738 58.7317 -9.636 -5.99134 111.392 20.3023 25.4412 -1.9643e-007 -3.4274e-006 -5.16824e-006 1.74671 2.02303 -0.483089 -9.93294e-006 3.35705e-006 -3.00237 8.0301 -4.9514 0.697662 -61.0022 -6.85882 4.34472 -109.789 17.6026 -12.453 -3.01874e-006 -1.92988e-006 7.29468e-006 -6.39628 0.0478282 1.31174 4.97182e-006 1.84412e-007 3.04922 -8.02935 -4.95143 -0.697668 172.934 3.52644 4.00493 -180 7.01575e-015 179.051 177.896 11.4851 179.715 -2.69805e-006 2.18376e-006 0.0361834 -16.9587 68.4524 19.8592 8.13456 25.2355 -3.48316 -173.991 2.46377 -1.10327 4.5067e-006 -1.99009e-005 -0.943599 -1.15168 -13.0404 0.452992 5.07824e-006 7.47567e-007 -0.171065 19.3608 71.3304 -22.5741 -8.12821 25.2406 3.48516 
53.9144 96.0306 8.34844 -0.315814 -2.31377 0.156897 0.597277 -0.552966 0.200993 1.18361 2.88914 0.321323 1.18093 4.534 0.301662 -2.38017 13.1084 -4.48898 2.16851 -2.8097 -4.8761 58.738 -9.64133 -5.99473 111.396 20.2961 25.4426 -1.9643e-007 -3.4274e-006 -5.16824e-006 1.74721 2.02953 -0.483305 -9.93294e-006 3.35705e-006 -3.00237 8.0301 -4.9514 0.697662 -60.9974 -6.85347 4.34132 -109.797 17.5968 -12.458 -3.01874e-006 -1.92988e-006 7.29468e-006 -6.39376 0.0478284 1.31263 4.97182e-006 1.84412e-007 3.04922 -8.02935 -4.95143 -0.697668 172.938 3.54409 3.99975 -180 7.01575e-015 179.051 177.9 11.4979 179.714 -2.69805e-006 2.18376e-006 0.0362577 -16.9664 68.4625 19.8691 8.13456 25.2355 -3.48316 -173.992 2.48472 -1.10122 4.5067e-006 -1.99009e-005 -0.943599 -1.15071 -13.0542 0.452944 5.07824e-006 7.47567e-007 -0.171569 19.3712 71.3374 -22.5831 -8.12821 25.2406 3.48516 
53.9152 96.0292 8.34836 -0.316635 -2.29938 0.159444 0.597448 -0.551921 0.200364 1.18531 2.89196 0.320514 1.18265 4.53682 0.300826 -2.37522 13.1238 -4.48796 2.1595 -2.82191 -4.87487 58.7445 -9.64665 -5.99813 111.399 20.2898 25.4439 -1.9643e-007 -3.4274e-006 -5.16824e-006 1.74783 2.03644 -0.483538 -9.93294e-006 3.35705e-006 -3.00237 8.0301 -4.9514 0.697662 -60.9927 -6.84806 4.33789 -109.805 17.591 -12.4628 -3.01874e-006 -1.92988e-006 7.29468e-006 -6.39131 0.0478286 1.31352 4.97182e-006 1.84412e-007 3.04922 -8.02935 -4.95143 -0.697668 172.942 3.56161 3.9945 -180 7.01575e-015 179.051 177.905 11.5106 179.713 -2.69805e-006 2.18376e-006 0.0363045 -16.9741 68.4725 19.8789 8.13456 25.2355 -3.48316 -173.992 2.50556 -1.09914 4.5067e-006 -1.99009e-005 -0.943599 -1.14969 -13.0678 0.452911 5.07824e-006 7.47567e-007 -0.172046 19.3812 71.3443 -22.592 -8.12821 25.2406 3.48516 
53.9189 96.0288 8.35444 -0.317466 -2.28508 0.162021 0.597591 -0.550871 0.199717 1.187 2.89482 0.319711 1.18434 4.53967 0.299997 -2.37006 13.1394 -4.48701 2.15031 -2.83437 -4.87367 58.7511 -9.65197 -6.00153 111.403 20.2834 25.4453 -1.9643e-007 -3.4274e-006 -5.16824e-006 1.74853 2.04364 -0.483782 -9.93294e-006 3.35705e-006 -3.00237 8.0301 -4.9514 0.697662 -60.988 -6.84262 4.33444 -109.813 17.5852 -12.4676 -3.01874e-006 -1.92988e-006 7.29468e-006 -6.3889 0.0478288 1.3144 4.97182e-006 1.84412e-007 3.04922 -8.02935 -4.95143 -0.697668 172.946 3.57903 3.98919 -180 7.01575e-015 179.051 177.909 11.5233 179.712 -2.69805e-006 2.18376e-006 0.0363321 -16.9816 68.4824 19.8888 8.13456 25.2355 -3.48316 -173.993 2.52633 -1.09702 4.5067e-006 -1.99009e-005 -0.943599 -1.14864 -13.0812 0.452889 5.07824e-006 7.47567e-007 -0.172504 19.3909 71.3509 -22.6007 -8.12821 25.2406 3.48516 
